<?xml version="1.0" encoding="iso-8859-1"?>
<!-- Generator: Adobe Illustrator 18.1.1, SVG Export Plug-In . SVG Version: 6.00 Build 0)  -->
<!-- License: CC0. Made by SVG Repo: https://www.svgrepo.com/svg/20356/pawprint -->
<svg version="1.1" id="Capa_1" xmlns="http://www.w3.org/2000/svg" xmlns:xlink="http://www.w3.org/1999/xlink" x="0px" y="0px"
	 viewBox="0 0 83.452 83.452" style="enable-background:new 0 0 83.452 83.452;" xml:space="preserve">
<g>
	<path style="fill:#010002;" d="M75.785,27.022c-1.446-0.83-3.024-1.41-4.66-1.768c0.043-0.157,0.097-0.322,0.14-0.476
		c0.576-2.154,2.326-8.697-1.757-14.115c-2.96-3.933-7.458-5.136-9.867-5.776c-2.004-0.537-4.656-1.156-7.437-1.156
		c-4.18,0-7.759,1.446-10.475,3.998c-2.716-2.552-6.295-3.998-10.475-3.998c-2.781,0-5.436,0.619-7.426,1.152
		c-2.419,0.648-6.921,1.85-9.881,5.783c-4.08,5.418-2.33,11.961-1.754,14.119c0.039,0.15,0.093,0.315,0.136,0.469
		c-1.636,0.361-3.217,0.938-4.67,1.772c-8.07,4.663-10.014,14.834-4.624,24.179c3.464,6.016,11.037,9.545,17.801,10.422
		c1.177,8.557,10.321,18.088,20.886,18.095h0.004c10.565,0,19.712-9.534,20.89-18.095c6.76-0.877,14.337-4.406,17.801-10.418
		C85.809,41.856,83.866,31.689,75.785,27.022z M45.762,17.946c1.729-6.438,6.9-5.672,11.556-4.42
		c4.653,1.245,7.025,2.498,5.304,8.94c-1.729,6.442-6.904,15.64-11.556,14.391C46.41,35.611,44.037,24.388,45.762,17.946z
		 M26.135,13.523c4.656-1.253,9.828-2.015,11.556,4.42c1.721,6.442-0.648,17.669-5.304,18.911
		c-4.653,1.249-9.824-7.952-11.556-14.391C19.106,16.024,21.479,14.768,26.135,13.523z M27.814,52.135
		c-3.701,2.133-14.079-0.279-17.028-5.4C7.837,41.62,8.427,36.91,12.131,34.77c3.701-2.133,9.083-0.877,12.032,4.248
		C27.123,44.129,31.511,50.009,27.814,52.135z M41.725,70.774c-6.671-0.004-12.079-7.115-12.079-10.966
		c0-3.854,5.408-2.992,12.079-2.992c6.671,0.007,12.079-0.863,12.079,2.992C53.803,63.655,48.396,70.774,41.725,70.774z
		 M72.664,46.738c-2.949,5.121-13.328,7.53-17.028,5.4c-3.693-2.129,0.694-8.006,3.65-13.116c2.949-5.125,8.335-6.378,12.032-4.248
		C75.022,36.914,75.613,41.624,72.664,46.738z"/>
</g>
</svg>
